<?xml version="1.0" encoding="UTF-8"?> <svg xmlns="http://www.w3.org/2000/svg" xmlns:xlink="http://www.w3.org/1999/xlink" width="819px" height="818px" viewBox="0 0 819 818"> <!-- Generator: Sketch 51.2 (57519) - http://www.bohemiancoding.com/sketch --> <title>scs-logo-circle copy</title> <desc>Created with Sketch.</desc> <defs></defs> <g id="Page-1" stroke="none" stroke-width="1" fill="none" fill-rule="evenodd"> <g id="Desktop" transform="translate(-113.000000, -57.000000)"> <g id="scs-logo-circle-copy" transform="translate(103.000000, 49.000000)"> <rect id="Rectangle" x="0" y="0" width="839" height="837"></rect> <path d="M823.61,417 C823.61,640.123 642.73,821 419.61,821 C196.49,821 15.61,640.123 15.61,417 C15.61,193.877 196.49,13 419.61,13 C642.73,13 823.61,193.877 823.61,417" id="Fill-38" fill="#1A1919"></path> <path d="M823.61,417 C823.61,640.123 642.73,821 419.61,821 C196.49,821 15.61,640.123 15.61,417 C15.61,193.877 196.49,13 419.61,13 C642.73,13 823.61,193.877 823.61,417 Z" id="Stroke-39" stroke="#343534" stroke-width="10"></path> <path d="M538.26,415.416 C538.26,480.418 485.55,533.129 420.53,533.129 C355.52,533.129 302.81,480.418 302.81,415.416 C302.81,350.414 355.52,297.704 420.53,297.704 C485.55,297.704 538.26,350.414 538.26,415.416 Z" id="Stroke-41" stroke="#343534" stroke-width="6.68"></path> <path d="M581.26,415.415 C581.26,504.182 509.3,576.143 420.53,576.143 C331.75,576.143 259.78,504.182 259.78,415.415 C259.78,326.649 331.75,254.678 420.53,254.678 C509.3,254.678 581.26,326.649 581.26,415.415 Z" id="Stroke-42" stroke="#343534" stroke-width="14.615"></path> <g id="Group-47" transform="translate(68.000000, 65.000000)" stroke="#343534"> <path d="M580.33,350.416 C580.33,476.234 478.34,578.229 352.53,578.229 C226.71,578.229 124.72,476.234 124.72,350.416 C124.72,224.597 226.71,122.603 352.53,122.603 C478.34,122.603 580.33,224.597 580.33,350.416 Z" id="Stroke-43" stroke-width="24.867"></path> <path d="M633.06,350.416 C633.06,505.347 507.46,630.952 352.53,630.952 C197.59,630.952 72,505.347 72,350.416 C72,195.47 197.59,69.866 352.53,69.866 C507.46,69.866 633.06,195.47 633.06,350.416 Z" id="Stroke-45" stroke-width="32.889"></path> <path d="M704.33,350.416 C704.33,543.418 546.83,699.881 352.53,699.881 C158.22,699.881 0.719,543.418 0.719,350.416 C0.719,157.415 158.22,0.958 352.53,0.958 C546.83,0.958 704.33,157.415 704.33,350.416 Z" id="Stroke-46" stroke-width="41.129"></path> </g> <path d="M117.32,247.701 L135.26,226.415 C146.17,234.702 158.67,238.129 170.44,238.129 C176.47,238.129 179.05,236.558 179.05,233.844 L179.05,233.558 C179.05,230.701 175.89,229.13 165.13,226.987 C142.59,222.416 122.77,215.988 122.77,194.847 L122.77,194.561 C122.77,175.563 137.71,160.849 165.41,160.849 C184.79,160.849 199.15,165.42 210.78,174.563 L194.42,197.132 C184.94,190.275 173.6,187.276 164.26,187.276 C159.24,187.276 156.94,188.99 156.94,191.418 L156.94,191.704 C156.94,194.417 159.67,196.132 170.29,198.132 C195.99,202.846 213.22,210.275 213.22,230.416 L213.22,230.701 C213.22,251.7 195.85,264.556 168.86,264.556 C148.47,264.556 130.1,258.842 117.32,247.701" id="Fill-48" fill="#FFFFFE"></path> <path d="M117.32,247.701 L135.26,226.415 C146.17,234.702 158.67,238.129 170.44,238.129 C176.47,238.129 179.05,236.558 179.05,233.844 L179.05,233.558 C179.05,230.701 175.89,229.13 165.13,226.987 C142.59,222.416 122.77,215.988 122.77,194.847 L122.77,194.561 C122.77,175.563 137.71,160.849 165.41,160.849 C184.79,160.849 199.15,165.42 210.78,174.563 L194.42,197.132 C184.94,190.275 173.6,187.276 164.26,187.276 C159.24,187.276 156.94,188.99 156.94,191.418 L156.94,191.704 C156.94,194.417 159.67,196.132 170.29,198.132 C195.99,202.846 213.22,210.275 213.22,230.416 L213.22,230.701 C213.22,251.7 195.85,264.556 168.86,264.556 C148.47,264.556 130.1,258.842 117.32,247.701 Z" id="Stroke-49" stroke="#1A1919"></path> <polyline id="Fill-50" fill="#FFFFFE" points="217.04 162.706 302.76 162.706 302.76 190.132 250.07 190.132 250.07 200.275 299.17 200.275 299.17 224.416 250.07 224.416 250.07 235.272 303.47 235.272 303.47 262.699 217.04 262.699 217.04 162.706"></polyline> <polygon id="Stroke-51" stroke="#1A1919" points="217.04 162.706 302.76 162.706 302.76 190.132 250.07 190.132 250.07 200.275 299.17 200.275 299.17 224.416 250.07 224.416 250.07 235.272 303.47 235.272 303.47 262.699 217.04 262.699"></polygon> <path d="M304.85,212.988 L304.85,212.702 C304.85,182.848 328.26,160.563 358.26,160.563 C380.37,160.563 395.3,171.277 403.77,186.562 L376.06,202.703 C372.33,195.561 367.02,190.562 357.83,190.562 C346.49,190.562 339.02,200.417 339.02,212.417 L339.02,212.702 C339.02,225.702 346.77,234.844 357.83,234.844 C367.31,234.844 372.62,229.702 376.78,222.273 L404.49,237.843 C396.02,252.7 381.95,264.842 356.97,264.842 C329.12,264.842 304.85,243.986 304.85,212.988" id="Fill-52" fill="#FFFFFE"></path> <path d="M304.85,212.988 L304.85,212.702 C304.85,182.848 328.26,160.563 358.26,160.563 C380.37,160.563 395.3,171.277 403.77,186.562 L376.06,202.703 C372.33,195.561 367.02,190.562 357.83,190.562 C346.49,190.562 339.02,200.417 339.02,212.417 L339.02,212.702 C339.02,225.702 346.77,234.844 357.83,234.844 C367.31,234.844 372.62,229.702 376.78,222.273 L404.49,237.843 C396.02,252.7 381.95,264.842 356.97,264.842 C329.12,264.842 304.85,243.986 304.85,212.988 Z" id="Stroke-53" stroke="#1A1919"></path> <path d="M477.66,212.988 L477.66,212.702 C477.66,200.846 469.47,190.132 456.55,190.132 C443.77,190.132 435.73,200.704 435.73,212.417 L435.73,212.702 C435.73,224.559 443.92,235.272 456.84,235.272 C469.62,235.272 477.66,224.702 477.66,212.988 Z M401.85,212.988 L401.85,212.702 C401.85,183.704 425.83,160.563 456.84,160.563 C487.85,160.563 511.54,183.418 511.54,212.417 L511.54,212.702 C511.54,241.701 487.56,264.842 456.55,264.842 C425.54,264.842 401.85,241.986 401.85,212.988 Z" id="Fill-54" fill="#FFFFFE"></path> <path d="M477.66,212.988 L477.66,212.702 C477.66,200.846 469.47,190.132 456.55,190.132 C443.77,190.132 435.73,200.704 435.73,212.417 L435.73,212.702 C435.73,224.559 443.92,235.272 456.84,235.272 C469.62,235.272 477.66,224.702 477.66,212.988 Z M401.85,212.988 L401.85,212.702 C401.85,183.704 425.83,160.563 456.84,160.563 C487.85,160.563 511.54,183.418 511.54,212.417 L511.54,212.702 C511.54,241.701 487.56,264.842 456.55,264.842 C425.54,264.842 401.85,241.986 401.85,212.988 Z" id="Stroke-55" stroke="#1A1919"></path> <polyline id="Fill-56" fill="#FFFFFE" points="516.54 162.706 547.99 162.706 583.73 206.845 583.73 162.706 617.04 162.706 617.04 262.699 587.18 262.699 549.85 216.56 549.85 262.699 516.54 262.699 516.54 162.706"></polyline> <polygon id="Stroke-57" stroke="#1A1919" points="516.54 162.706 547.99 162.706 583.73 206.845 583.73 162.706 617.04 162.706 617.04 262.699 587.18 262.699 549.85 216.56 549.85 262.699 516.54 262.699"></polygon> <path d="M662.48,233.558 C677.85,233.558 687.75,227.272 687.75,212.845 L687.75,212.561 C687.75,198.132 677.85,191.847 662.48,191.847 L656.88,191.847 L656.88,233.558 L662.48,233.558 Z M623.29,162.706 L661.76,162.706 C701.68,162.706 721.63,182.276 721.63,211.845 L721.63,212.131 C721.63,241.701 701.25,262.699 660.62,262.699 L623.29,262.699 L623.29,162.706 Z" id="Fill-58" fill="#FFFFFE"></path> <path d="M662.48,233.558 C677.85,233.558 687.75,227.272 687.75,212.845 L687.75,212.561 C687.75,198.132 677.85,191.847 662.48,191.847 L656.88,191.847 L656.88,233.558 L662.48,233.558 Z M623.29,162.706 L661.76,162.706 C701.68,162.706 721.63,182.276 721.63,211.845 L721.63,212.131 C721.63,241.701 701.25,262.699 660.62,262.699 L623.29,262.699 L623.29,162.706 Z" id="Stroke-59" stroke="#1A1919"></path> <path d="M116.763,360.534 L116.763,360.025 C116.763,306.991 158.12,267.404 211.16,267.404 C250.24,267.404 276.63,286.436 291.6,313.588 L242.63,342.263 C236.03,329.576 226.64,320.693 210.4,320.693 C190.35,320.693 177.16,338.203 177.16,359.519 L177.16,360.025 C177.16,383.118 190.86,399.359 210.4,399.359 C227.15,399.359 236.54,390.224 243.9,377.028 L292.87,404.688 C277.9,431.079 253.03,452.648 208.88,452.648 C159.65,452.648 116.763,415.599 116.763,360.534" id="Fill-60" fill="#FFFFFE"></path> <path d="M116.763,360.534 L116.763,360.025 C116.763,306.991 158.12,267.404 211.16,267.404 C250.24,267.404 276.63,286.436 291.6,313.588 L242.63,342.263 C236.03,329.576 226.64,320.693 210.4,320.693 C190.35,320.693 177.16,338.203 177.16,359.519 L177.16,360.025 C177.16,383.118 190.86,399.359 210.4,399.359 C227.15,399.359 236.54,390.224 243.9,377.028 L292.87,404.688 C277.9,431.079 253.03,452.648 208.88,452.648 C159.65,452.648 116.763,415.599 116.763,360.534 Z" id="Stroke-61" stroke="#1A1919"></path> <polygon id="Fill-62" fill="#FFFFFE" points="297.01 448.84 356.38 448.84 356.38 271.211 297.01 271.211"></polygon> <polygon id="Stroke-63" stroke="#1A1919" points="297.01 448.84 356.38 448.84 356.38 271.211 297.01 271.211"></polygon> <polyline id="Fill-64" fill="#FFFFFE" points="416.13 321.455 363.85 321.455 363.85 271.211 527.78 271.211 527.78 321.455 475.5 321.455 475.5 448.84 416.13 448.84 416.13 321.455"></polyline> <polygon id="Stroke-65" stroke="#1A1919" points="416.13 321.455 363.85 321.455 363.85 271.211 527.78 271.211 527.78 321.455 475.5 321.455 475.5 448.84 416.13 448.84"></polygon> <polyline id="Fill-66" fill="#FFFFFE" points="597.76 385.91 530.77 271.211 597.26 271.211 627.71 329.576 658.41 271.211 724.14 271.211 657.14 385.148 657.14 448.84 597.76 448.84 597.76 385.91"></polyline> <polygon id="Stroke-67" stroke="#1A1919" points="597.76 385.91 530.77 271.211 597.26 271.211 627.71 329.576 658.41 271.211 724.14 271.211 657.14 385.148 657.14 448.84 597.76 448.84"></polygon> <path d="M117.49,558.869 L138.42,533.92 C151.15,543.631 165.72,547.65 179.45,547.65 C186.48,547.65 189.49,545.807 189.49,542.627 L189.49,542.293 C189.49,538.943 185.81,537.102 173.25,534.59 C146.96,529.23 123.86,521.697 123.86,496.916 L123.86,496.582 C123.86,474.311 141.27,457.065 173.58,457.065 C196.19,457.065 212.93,462.423 226.5,473.139 L207.41,499.594 C196.36,491.557 183.13,488.041 172.25,488.041 C166.39,488.041 163.71,490.051 163.71,492.896 L163.71,493.232 C163.71,496.414 166.89,498.424 179.28,500.768 C209.25,506.291 229.34,514.998 229.34,538.607 L229.34,538.943 C229.34,563.557 209.08,578.627 177.6,578.627 C153.83,578.627 132.4,571.93 117.49,558.869" id="Fill-68" fill="#FFFFFE"></path> <path d="M117.49,558.869 L138.42,533.92 C151.15,543.631 165.72,547.65 179.45,547.65 C186.48,547.65 189.49,545.807 189.49,542.627 L189.49,542.293 C189.49,538.943 185.81,537.102 173.25,534.59 C146.96,529.23 123.86,521.697 123.86,496.916 L123.86,496.582 C123.86,474.311 141.27,457.065 173.58,457.065 C196.19,457.065 212.93,462.423 226.5,473.139 L207.41,499.594 C196.36,491.557 183.13,488.041 172.25,488.041 C166.39,488.041 163.71,490.051 163.71,492.896 L163.71,493.232 C163.71,496.414 166.89,498.424 179.28,500.768 C209.25,506.291 229.34,514.998 229.34,538.607 L229.34,538.943 C229.34,563.557 209.08,578.627 177.6,578.627 C153.83,578.627 132.4,571.93 117.49,558.869 Z" id="Stroke-69" stroke="#1A1919"></path> <path d="M364.18,523.873 L364.18,459.242 L404.03,459.242 L404.03,523.371 C404.03,537.938 411.56,544.135 422.11,544.135 C432.66,544.135 440.2,538.441 440.2,524.209 L440.2,459.242 L480.05,459.242 L480.05,523.035 C480.05,563.055 456.77,578.795 421.78,578.795 C386.78,578.795 364.18,562.719 364.18,523.873" id="Fill-70" fill="#FFFFFE"></path> <path d="M364.18,523.873 L364.18,459.242 L404.03,459.242 L404.03,523.371 C404.03,537.938 411.56,544.135 422.11,544.135 C432.66,544.135 440.2,538.441 440.2,524.209 L440.2,459.242 L480.05,459.242 L480.05,523.035 C480.05,563.055 456.77,578.795 421.78,578.795 C386.78,578.795 364.18,562.719 364.18,523.873 Z" id="Stroke-71" stroke="#1A1919"></path> <polyline id="Fill-72" fill="#FFFFFE" points="486.51 459.242 523.18 459.242 564.87 510.98 564.87 459.242 603.71 459.242 603.71 576.449 568.89 576.449 525.35 522.365 525.35 576.449 486.51 576.449 486.51 459.242"></polyline> <polygon id="Stroke-73" stroke="#1A1919" points="486.51 459.242 523.18 459.242 564.87 510.98 564.87 459.242 603.71 459.242 603.71 576.449 568.89 576.449 525.35 522.365 525.35 576.449 486.51 576.449"></polygon> <path d="M655.61,542.293 C673.52,542.293 685.07,534.924 685.07,518.014 L685.07,517.678 C685.07,500.768 673.52,493.398 655.61,493.398 L649.07,493.398 L649.07,542.293 L655.61,542.293 Z M609.89,459.242 L654.77,459.242 C701.32,459.242 724.59,482.182 724.59,516.84 L724.59,517.176 C724.59,551.836 700.81,576.449 653.43,576.449 L609.89,576.449 L609.89,459.242 Z" id="Fill-74" fill="#FFFFFE"></path> <path d="M655.61,542.293 C673.52,542.293 685.07,534.924 685.07,518.014 L685.07,517.678 C685.07,500.768 673.52,493.398 655.61,493.398 L649.07,493.398 L649.07,542.293 L655.61,542.293 Z M609.89,459.242 L654.77,459.242 C701.32,459.242 724.59,482.182 724.59,516.84 L724.59,517.176 C724.59,551.836 700.81,576.449 653.43,576.449 L609.89,576.449 L609.89,459.242 Z" id="Stroke-75" stroke="#1A1919"></path> <polyline id="Fill-76" fill="#FFFFFE" points="515.2 612.049 524.51 612.049 519.84 601.229 515.2 612.049"></polyline> <polygon id="Stroke-77" stroke="#1A1919" points="515.2 612.049 524.51 612.049 519.84 601.229"></polygon> <path d="M709.04,615.1 C709.04,620.164 705.05,623.178 699.37,623.178 C695.24,623.178 691.33,621.748 688.09,618.852 L690.95,615.449 C693.54,617.691 696.13,618.967 699.49,618.967 C702.43,618.967 704.28,617.613 704.28,615.564 L704.28,615.486 C704.28,613.555 703.2,612.514 698.18,611.354 C692.42,609.961 689.17,608.262 689.17,603.275 L689.17,603.199 C689.17,598.563 693.04,595.355 698.41,595.355 C702.35,595.355 705.48,596.553 708.22,598.754 L705.67,602.348 C703.24,600.531 700.8,599.566 698.33,599.566 C695.55,599.566 693.92,600.996 693.92,602.773 L693.92,602.852 C693.92,604.939 695.16,605.865 700.34,607.102 C706.06,608.492 709.04,610.541 709.04,615.023 L709.04,615.1 Z M672.14,622.793 L668.16,622.793 L653.24,603.547 L653.24,622.793 L648.57,622.793 L648.57,595.738 L652.97,595.738 L667.46,614.445 L667.46,595.738 L672.14,595.738 L672.14,622.793 Z M632,609.266 C632,616.879 626.12,623.256 617.81,623.256 C609.51,623.256 603.71,616.957 603.71,609.344 L603.71,609.266 C603.71,601.652 609.58,595.275 617.89,595.275 C626.2,595.275 632,601.574 632,609.189 L632,609.266 Z M582.11,622.793 L586.86,622.793 L586.86,595.738 L582.11,595.738 L582.11,622.793 Z M566,600.145 L557.43,600.145 L557.43,622.793 L552.63,622.793 L552.63,600.145 L544.05,600.145 L544.05,595.738 L566,595.738 L566,600.145 Z M529,622.793 L526.25,616.262 L513.46,616.262 L510.68,622.793 L505.81,622.793 L517.71,595.547 L522.12,595.547 L534.02,622.793 L529,622.793 Z M481.36,623.256 C473.47,623.256 467.6,617.109 467.6,609.344 L467.6,609.266 C467.6,601.574 473.36,595.275 481.55,595.275 C486.53,595.275 489.55,597.016 492.14,599.488 L489.08,603.006 C486.92,600.996 484.6,599.643 481.51,599.643 C476.33,599.643 472.58,603.893 472.58,609.189 L472.58,609.266 C472.58,614.561 476.33,618.889 481.51,618.889 C484.83,618.889 486.96,617.537 489.28,615.371 L492.33,618.465 C489.51,621.4 486.42,623.256 481.36,623.256 Z M446,622.793 L450.75,622.793 L450.75,595.738 L446,595.738 L446,622.793 Z M427.96,622.793 L423.98,622.793 L409.07,603.547 L409.07,622.793 L404.39,622.793 L404.39,595.738 L408.79,595.738 L423.29,614.445 L423.29,595.738 L427.96,595.738 L427.96,622.793 Z M387.05,611.082 C387.05,619.16 382.49,623.217 375.42,623.217 C368.38,623.217 363.9,619.16 363.9,611.314 L363.9,595.738 L368.65,595.738 L368.65,611.121 C368.65,616.146 371.24,618.852 375.49,618.852 C379.71,618.852 382.29,616.299 382.29,611.314 L382.29,595.738 L387.05,595.738 L387.05,611.082 Z M346.56,622.793 L341.81,622.793 L341.81,603.391 L333.27,616.146 L333.11,616.146 L324.65,603.469 L324.65,622.793 L319.97,622.793 L319.97,595.738 L325.03,595.738 L333.27,608.529 L341.5,595.738 L346.56,595.738 L346.56,622.793 Z M302.2,622.793 L297.45,622.793 L297.45,603.391 L288.91,616.146 L288.76,616.146 L280.29,603.469 L280.29,622.793 L275.62,622.793 L275.62,595.738 L280.68,595.738 L288.91,608.529 L297.14,595.738 L302.2,595.738 L302.2,622.793 Z M259.05,609.266 C259.05,616.879 253.17,623.256 244.86,623.256 C236.56,623.256 230.76,616.957 230.76,609.344 L230.76,609.266 C230.76,601.652 236.63,595.275 244.94,595.275 C253.25,595.275 259.05,601.574 259.05,609.189 L259.05,609.266 Z M205.96,623.256 C198.08,623.256 192.2,617.109 192.2,609.344 L192.2,609.266 C192.2,601.574 197.96,595.275 206.15,595.275 C211.14,595.275 214.15,597.016 216.74,599.488 L213.69,603.006 C211.52,600.996 209.21,599.643 206.11,599.643 C200.93,599.643 197.19,603.893 197.19,609.189 L197.19,609.266 C197.19,614.561 200.93,618.889 206.11,618.889 C209.44,618.889 211.56,617.537 213.88,615.371 L216.94,618.465 C214.11,621.4 211.02,623.256 205.96,623.256 Z M152.03,623.334 L148.43,619.66 C146.11,621.826 143.41,623.178 140.12,623.178 C135.1,623.178 131.31,620.125 131.31,615.449 L131.31,615.371 C131.31,611.895 133.36,609.383 137.07,607.799 C135.52,605.826 134.83,604.125 134.83,602.154 L134.83,602.076 C134.83,598.445 137.76,595.275 142.6,595.275 C146.89,595.275 149.79,598.176 149.79,601.809 L149.79,601.885 C149.79,605.439 147.43,607.566 143.83,608.918 L148.47,613.635 C149.51,612.088 150.48,610.311 151.37,608.414 L154.96,610.311 C153.88,612.473 152.68,614.598 151.29,616.492 L155.54,620.82 L152.03,623.334 Z M116.007,631.334 L722.75,631.334 L722.75,585.996 L116.007,585.996 L116.007,631.334 Z" id="Fill-78" fill="#FFFFFE"></path> <path d="M709.04,615.1 C709.04,620.164 705.05,623.178 699.37,623.178 C695.24,623.178 691.33,621.748 688.09,618.852 L690.95,615.449 C693.54,617.691 696.13,618.967 699.49,618.967 C702.43,618.967 704.28,617.613 704.28,615.564 L704.28,615.486 C704.28,613.555 703.2,612.514 698.18,611.354 C692.42,609.961 689.17,608.262 689.17,603.275 L689.17,603.199 C689.17,598.563 693.04,595.355 698.41,595.355 C702.35,595.355 705.48,596.553 708.22,598.754 L705.67,602.348 C703.24,600.531 700.8,599.566 698.33,599.566 C695.55,599.566 693.92,600.996 693.92,602.773 L693.92,602.852 C693.92,604.939 695.16,605.865 700.34,607.102 C706.06,608.492 709.04,610.541 709.04,615.023 L709.04,615.1 Z M672.14,622.793 L668.16,622.793 L653.24,603.547 L653.24,622.793 L648.57,622.793 L648.57,595.738 L652.97,595.738 L667.46,614.445 L667.46,595.738 L672.14,595.738 L672.14,622.793 Z M632,609.266 C632,616.879 626.12,623.256 617.81,623.256 C609.51,623.256 603.71,616.957 603.71,609.344 L603.71,609.266 C603.71,601.652 609.58,595.275 617.89,595.275 C626.2,595.275 632,601.574 632,609.189 L632,609.266 Z M582.11,622.793 L586.86,622.793 L586.86,595.738 L582.11,595.738 L582.11,622.793 Z M566,600.145 L557.43,600.145 L557.43,622.793 L552.63,622.793 L552.63,600.145 L544.05,600.145 L544.05,595.738 L566,595.738 L566,600.145 Z M529,622.793 L526.25,616.262 L513.46,616.262 L510.68,622.793 L505.81,622.793 L517.71,595.547 L522.12,595.547 L534.02,622.793 L529,622.793 Z M481.36,623.256 C473.47,623.256 467.6,617.109 467.6,609.344 L467.6,609.266 C467.6,601.574 473.36,595.275 481.55,595.275 C486.53,595.275 489.55,597.016 492.14,599.488 L489.08,603.006 C486.92,600.996 484.6,599.643 481.51,599.643 C476.33,599.643 472.58,603.893 472.58,609.189 L472.58,609.266 C472.58,614.561 476.33,618.889 481.51,618.889 C484.83,618.889 486.96,617.537 489.28,615.371 L492.33,618.465 C489.51,621.4 486.42,623.256 481.36,623.256 Z M446,622.793 L450.75,622.793 L450.75,595.738 L446,595.738 L446,622.793 Z M427.96,622.793 L423.98,622.793 L409.07,603.547 L409.07,622.793 L404.39,622.793 L404.39,595.738 L408.79,595.738 L423.29,614.445 L423.29,595.738 L427.96,595.738 L427.96,622.793 Z M387.05,611.082 C387.05,619.16 382.49,623.217 375.42,623.217 C368.38,623.217 363.9,619.16 363.9,611.314 L363.9,595.738 L368.65,595.738 L368.65,611.121 C368.65,616.146 371.24,618.852 375.49,618.852 C379.71,618.852 382.29,616.299 382.29,611.314 L382.29,595.738 L387.05,595.738 L387.05,611.082 Z M346.56,622.793 L341.81,622.793 L341.81,603.391 L333.27,616.146 L333.11,616.146 L324.65,603.469 L324.65,622.793 L319.97,622.793 L319.97,595.738 L325.03,595.738 L333.27,608.529 L341.5,595.738 L346.56,595.738 L346.56,622.793 Z M302.2,622.793 L297.45,622.793 L297.45,603.391 L288.91,616.146 L288.76,616.146 L280.29,603.469 L280.29,622.793 L275.62,622.793 L275.62,595.738 L280.68,595.738 L288.91,608.529 L297.14,595.738 L302.2,595.738 L302.2,622.793 Z M259.05,609.266 C259.05,616.879 253.17,623.256 244.86,623.256 C236.56,623.256 230.76,616.957 230.76,609.344 L230.76,609.266 C230.76,601.652 236.63,595.275 244.94,595.275 C253.25,595.275 259.05,601.574 259.05,609.189 L259.05,609.266 Z M205.96,623.256 C198.08,623.256 192.2,617.109 192.2,609.344 L192.2,609.266 C192.2,601.574 197.96,595.275 206.15,595.275 C211.14,595.275 214.15,597.016 216.74,599.488 L213.69,603.006 C211.52,600.996 209.21,599.643 206.11,599.643 C200.93,599.643 197.19,603.893 197.19,609.189 L197.19,609.266 C197.19,614.561 200.93,618.889 206.11,618.889 C209.44,618.889 211.56,617.537 213.88,615.371 L216.94,618.465 C214.11,621.4 211.02,623.256 205.96,623.256 Z M152.03,623.334 L148.43,619.66 C146.11,621.826 143.41,623.178 140.12,623.178 C135.1,623.178 131.31,620.125 131.31,615.449 L131.31,615.371 C131.31,611.895 133.36,609.383 137.07,607.799 C135.52,605.826 134.83,604.125 134.83,602.154 L134.83,602.076 C134.83,598.445 137.76,595.275 142.6,595.275 C146.89,595.275 149.79,598.176 149.79,601.809 L149.79,601.885 C149.79,605.439 147.43,607.566 143.83,608.918 L148.47,613.635 C149.51,612.088 150.48,610.311 151.37,608.414 L154.96,610.311 C153.88,612.473 152.68,614.598 151.29,616.492 L155.54,620.82 L152.03,623.334 Z M116.007,631.334 L722.75,631.334 L722.75,585.996 L116.007,585.996 L116.007,631.334 Z" id="Stroke-79" stroke="#1A1919"></path> <path d="M617.81,599.643 C612.44,599.643 608.69,603.934 608.69,609.189 L608.69,609.266 C608.69,614.521 612.52,618.889 617.89,618.889 C623.26,618.889 627.01,614.598 627.01,609.344 L627.01,609.266 C627.01,604.01 623.18,599.643 617.81,599.643" id="Fill-80" fill="#FFFFFE"></path> <path d="M617.81,599.643 C612.44,599.643 608.69,603.934 608.69,609.189 L608.69,609.266 C608.69,614.521 612.52,618.889 617.89,618.889 C623.26,618.889 627.01,614.598 627.01,609.344 L627.01,609.266 C627.01,604.01 623.18,599.643 617.81,599.643 Z" id="Stroke-81" stroke="#1A1919"></path> <path d="M244.86,599.643 C239.49,599.643 235.75,603.934 235.75,609.189 L235.75,609.266 C235.75,614.521 239.57,618.889 244.94,618.889 C250.31,618.889 254.06,614.598 254.06,609.344 L254.06,609.266 C254.06,604.01 250.24,599.643 244.86,599.643" id="Fill-82" fill="#FFFFFE"></path> <path d="M244.86,599.643 C239.49,599.643 235.75,603.934 235.75,609.189 L235.75,609.266 C235.75,614.521 239.57,618.889 244.94,618.889 C250.31,618.889 254.06,614.598 254.06,609.344 L254.06,609.266 C254.06,604.01 250.24,599.643 244.86,599.643 Z" id="Stroke-83" stroke="#1A1919"></path> <path d="M136.1,615.217 L136.1,615.295 C136.1,617.574 138,619.236 140.63,619.236 C142.48,619.236 144.18,618.348 145.73,616.879 L139.7,610.734 C137.19,611.816 136.1,613.477 136.1,615.217" id="Fill-84" fill="#FFFFFE"></path> <path d="M136.1,615.217 L136.1,615.295 C136.1,617.574 138,619.236 140.63,619.236 C142.48,619.236 144.18,618.348 145.73,616.879 L139.7,610.734 C137.19,611.816 136.1,613.477 136.1,615.217 Z" id="Stroke-85" stroke="#1A1919"></path> <path d="M145.57,602.154 L145.57,602.076 C145.57,600.262 144.3,599.023 142.48,599.023 C140.55,599.023 139.27,600.377 139.27,602.27 L139.27,602.348 C139.27,603.701 139.81,604.705 141.32,606.369 C144.1,605.363 145.57,604.088 145.57,602.154" id="Fill-86" fill="#FFFFFE"></path> <path d="M145.57,602.154 L145.57,602.076 C145.57,600.262 144.3,599.023 142.48,599.023 C140.55,599.023 139.27,600.377 139.27,602.27 L139.27,602.348 C139.27,603.701 139.81,604.705 141.32,606.369 C144.1,605.363 145.57,604.088 145.57,602.154 Z" id="Stroke-87" stroke="#1A1919"></path> <path d="M319.16,518.207 L319.16,517.875 C319.16,504.188 309.71,491.818 294.79,491.818 C280.04,491.818 270.76,504.023 270.76,517.547 L270.76,517.875 C270.76,531.564 280.21,543.936 295.13,543.936 C309.88,543.936 319.16,531.73 319.16,518.207 Z M231.64,518.207 L231.64,517.875 C231.64,484.398 259.32,457.681 295.13,457.681 C330.93,457.681 358.28,484.067 358.28,517.547 L358.28,517.875 C358.28,551.355 330.6,578.074 294.79,578.074 C258.99,578.074 231.64,551.686 231.64,518.207 Z" id="Fill-88" fill="#FFFFFE"></path> <path d="M319.16,518.207 L319.16,517.875 C319.16,504.188 309.71,491.818 294.79,491.818 C280.04,491.818 270.76,504.023 270.76,517.547 L270.76,517.875 C270.76,531.564 280.21,543.936 295.13,543.936 C309.88,543.936 319.16,531.73 319.16,518.207 Z M231.64,518.207 L231.64,517.875 C231.64,484.398 259.32,457.681 295.13,457.681 C330.93,457.681 358.28,484.067 358.28,517.547 L358.28,517.875 C358.28,551.355 330.6,578.074 294.79,578.074 C258.99,578.074 231.64,551.686 231.64,518.207 Z" id="Stroke-89" stroke="#1A1919"></path> </g> </g> </g> </svg> 